<svg xmlns="http://www.w3.org/2000/svg" width="140" height="35" viewBox="0 0 140 35">
    <g fill="none" fill-rule="evenodd">
        <path fill="#333" fill-rule="nonzero" d="M63.075 12.15h4.3l-5.15 12.3h-3.65l-2.45-6.025-2.3 6.025H50.15L45 12.15h4.5l2.725 6.975 2.65-6.975h2.85l2.675 7.1 2.675-7.1zm5.325 12.3v-12.3h4.45v12.3H68.4zM68.3 6h4.65v4.025H68.3V6zm12.1 15.175h5.925v3.275H75.25v-3.125l5.525-5.9H75.25V12.15h10.825v2.925l-5.675 6.1zm8 3.275V6.825h4.45V24.45H88.4zm13.225.2c-1.35 0-2.537-.262-3.563-.787a5.652 5.652 0 0 1-2.374-2.238c-.559-.967-.838-2.1-.838-3.4 0-1.3.28-2.43.838-3.388a5.613 5.613 0 0 1 2.362-2.212c1.017-.517 2.208-.775 3.575-.775s2.558.258 3.575.775a5.613 5.613 0 0 1 2.362 2.213c.559.958.838 2.087.838 3.387 0 1.3-.28 2.433-.838 3.4a5.67 5.67 0 0 1-2.362 2.238c-1.017.525-2.208.787-3.575.787zm0-3.325c1.583 0 2.375-1.033 2.375-3.1s-.792-3.1-2.375-3.1-2.375 1.033-2.375 3.1.792 3.1 2.375 3.1zm21.925-9.175v10.8c0 2.033-.604 3.575-1.813 4.625-1.208 1.05-2.995 1.575-5.362 1.575-1.117 0-2.2-.13-3.25-.387-1.05-.259-1.958-.621-2.725-1.088l1.125-3.025c.767.4 1.562.708 2.387.925a9.216 9.216 0 0 0 2.338.325c.983 0 1.712-.212 2.188-.637.475-.426.712-1.096.712-2.013v-.95c-.367.55-.892.987-1.575 1.313a5.113 5.113 0 0 1-2.225.487c-1.067 0-2.017-.25-2.85-.75-.833-.5-1.483-1.212-1.95-2.138-.467-.925-.7-1.995-.7-3.212s.233-2.292.7-3.225c.467-.933 1.117-1.654 1.95-2.162.833-.509 1.783-.763 2.85-.763.817 0 1.567.167 2.25.5.683.333 1.208.792 1.575 1.375V12.15h4.375zm-6.85 8.625c.783 0 1.392-.246 1.825-.737.433-.492.65-1.171.65-2.038 0-.883-.217-1.575-.65-2.075-.433-.5-1.042-.75-1.825-.75-.767 0-1.367.246-1.8.737-.433.492-.65 1.188-.65 2.088 0 .867.22 1.546.662 2.038.442.491 1.038.737 1.788.737zm15.65 3.875c-1.35 0-2.537-.262-3.563-.787a5.652 5.652 0 0 1-2.375-2.238c-.558-.967-.837-2.1-.837-3.4 0-1.3.28-2.43.837-3.388a5.613 5.613 0 0 1 2.363-2.212c1.017-.517 2.208-.775 3.575-.775s2.558.258 3.575.775a5.613 5.613 0 0 1 2.362 2.213c.559.958.838 2.087.838 3.387 0 1.3-.28 2.433-.838 3.4a5.67 5.67 0 0 1-2.362 2.238c-1.017.525-2.208.787-3.575.787zm0-3.325c1.583 0 2.375-1.033 2.375-3.1s-.792-3.1-2.375-3.1-2.375 1.033-2.375 3.1.792 3.1 2.375 3.1z"/>
        <path fill="#F44444" d="M17.5 35C7.835 35 0 27.165 0 17.5S7.835 0 17.5 0 35 7.835 35 17.5 27.165 35 17.5 35zm-1.588-16.154l2.062 4.761c.64 1.477 2.693 1.633 3.554.27l6.284-9.946a1.977 1.977 0 0 0-.64-2.741 2.024 2.024 0 0 0-2.77.632l-4.246 6.72-2.255-5.206c-.675-1.556-2.882-1.62-3.647-.106l-2.316 4.581-1.818-2.398a2.025 2.025 0 0 0-2.815-.398 1.975 1.975 0 0 0-.403 2.785l3.77 4.974c.898 1.183 2.74 1.019 3.408-.304l1.832-3.624z"/>
    </g>
</svg>
